<svg width="24" height="24" viewBox="0 0 24 24" fill="none" xmlns="http://www.w3.org/2000/svg">
<g clip-path="url(#clip0_67_82)">
<path d="M18 24H8C7.02823 23.9987 6.0779 23.7143 5.26521 23.1815C4.45252 22.6487 3.81271 21.8906 3.424 21H2C1.73478 21 1.48043 20.8946 1.29289 20.7071C1.10536 20.5196 1 20.2652 1 20C1 19.7348 1.10536 19.4804 1.29289 19.2929C1.48043 19.1054 1.73478 19 2 19H3V17H2C1.73478 17 1.48043 16.8946 1.29289 16.7071C1.10536 16.5196 1 16.2652 1 16C1 15.7348 1.10536 15.4804 1.29289 15.2929C1.48043 15.1054 1.73478 15 2 15H3V13H2C1.73478 13 1.48043 12.8946 1.29289 12.7071C1.10536 12.5196 1 12.2652 1 12C1 11.7348 1.10536 11.4804 1.29289 11.2929C1.48043 11.1054 1.73478 11 2 11H3V9H2C1.73478 9 1.48043 8.89464 1.29289 8.70711C1.10536 8.51957 1 8.26522 1 8C1 7.73478 1.10536 7.48043 1.29289 7.29289C1.48043 7.10536 1.73478 7 2 7H3V5H2C1.73478 5 1.48043 4.89464 1.29289 4.70711C1.10536 4.51957 1 4.26522 1 4C1 3.73478 1.10536 3.48043 1.29289 3.29289C1.48043 3.10536 1.73478 3 2 3H3.424C3.81271 2.10936 4.45252 1.35129 5.26521 0.818499C6.0779 0.285706 7.02823 0.00127792 8 0H18C19.3256 0.00158691 20.5964 0.528881 21.5338 1.46622C22.4711 2.40356 22.9984 3.6744 23 5V19C22.9984 20.3256 22.4711 21.5964 21.5338 22.5338C20.5964 23.4711 19.3256 23.9984 18 24V24ZM21 5C21 4.20435 20.6839 3.44129 20.1213 2.87868C19.5587 2.31607 18.7957 2 18 2H8C7.20435 2 6.44129 2.31607 5.87868 2.87868C5.31607 3.44129 5 4.20435 5 5V19C5 19.7956 5.31607 20.5587 5.87868 21.1213C6.44129 21.6839 7.20435 22 8 22H18C18.7957 22 19.5587 21.6839 20.1213 21.1213C20.6839 20.5587 21 19.7956 21 19V5ZM13 12C13.7957 12 14.5587 12.3161 15.1213 12.8787C15.6839 13.4413 16 14.2044 16 15C16 15.7956 15.6839 16.5587 15.1213 17.1213C14.5587 17.6839 13.7957 18 13 18C12.2044 18 11.4413 17.6839 10.8787 17.1213C10.3161 16.5587 10 15.7956 10 15C10 14.2044 10.3161 13.4413 10.8787 12.8787C11.4413 12.3161 12.2044 12 13 12ZM18 6C18 5.73478 17.8946 5.48043 17.7071 5.29289C17.5196 5.10536 17.2652 5 17 5C16.7348 5 16.4804 5.10536 16.2929 5.29289C16.1054 5.48043 16 5.73478 16 6C16 6.79565 15.6839 7.55871 15.1213 8.12132C14.5587 8.68393 13.7957 9 13 9C12.2044 9 11.4413 8.68393 10.8787 8.12132C10.3161 7.55871 10 6.79565 10 6C10 5.73478 9.89464 5.48043 9.70711 5.29289C9.51957 5.10536 9.26522 5 9 5C8.73478 5 8.48043 5.10536 8.29289 5.29289C8.10536 5.48043 8 5.73478 8 6C8.211 12.608 17.791 12.606 18 6Z" fill="#63745E"/>
</g>
<defs>
<clipPath id="clip0_67_82">
<rect width="24" height="24" fill="white" transform="matrix(1 0 0 -1 0 24)"/>
</clipPath>
</defs>
</svg>
