<svg width="24" height="24" viewBox="0 0 24 24" fill="none" xmlns="http://www.w3.org/2000/svg">
<g clip-path="url(#clip0_59_33)">
<path d="M18.713 12H14C13.4696 12 12.9609 11.7893 12.5858 11.4142C12.2107 11.0392 12 10.5304 12 10V5.27401C12.0014 4.814 11.8969 4.35983 11.6948 3.94662C11.4926 3.53341 11.1981 3.17224 10.834 2.89101C10.4891 2.61783 10.0859 2.42759 9.65574 2.335C9.22555 2.24241 8.77984 2.24994 8.35303 2.35701C5.92869 2.95883 3.78236 4.37008 2.269 6.35738C0.755644 8.34468 -0.034094 10.789 0.0303915 13.2861C0.0948769 15.7832 1.00972 18.1835 2.62364 20.09C4.23755 21.9965 6.45386 23.2951 8.90603 23.771C11.6631 24.2987 14.5177 23.7524 16.8851 22.2439C19.2525 20.7355 20.9536 18.3789 21.64 15.657C21.7475 15.2297 21.7553 14.7833 21.6629 14.3524C21.5705 13.9216 21.3803 13.5177 21.107 13.172C20.8225 12.8085 20.4592 12.5141 20.0446 12.3112C19.6299 12.1082 19.1747 12.0018 18.713 12ZM19.701 15.168C19.3181 16.7099 18.5326 18.1224 17.4247 19.261C16.3168 20.3997 14.9264 21.2236 13.3956 21.6486C11.8648 22.0736 10.2485 22.0843 8.71223 21.6797C7.17592 21.2751 5.77465 20.4697 4.65174 19.3458C3.52883 18.222 2.72458 16.8201 2.32125 15.2834C1.91793 13.7468 1.93 12.1306 2.35623 10.6001C2.78246 9.06967 3.60756 7.6799 4.74713 6.57296C5.8867 5.46601 7.29985 4.68162 8.84203 4.30001C8.97396 4.26705 9.11178 4.26544 9.24445 4.29531C9.37712 4.32517 9.50095 4.38569 9.60603 4.47201C9.73012 4.56662 9.83075 4.68854 9.90012 4.82832C9.96949 4.96809 10.0057 5.12197 10.006 5.27801V10C10.006 11.0609 10.4275 12.0783 11.1776 12.8284C11.9277 13.5786 12.9452 14 14.006 14H18.718C18.8754 14.0007 19.0306 14.037 19.172 14.1063C19.3133 14.1756 19.4371 14.276 19.534 14.4C19.619 14.5066 19.6783 14.6313 19.707 14.7646C19.7358 14.8978 19.7334 15.0359 19.7 15.168H19.701Z" fill="#63745E"/>
<path d="M23.651 7.44599C23.1906 5.75346 22.2963 4.21049 21.0564 2.96976C19.8166 1.72904 18.2742 0.833578 16.582 0.371986C16.4046 0.324296 16.2217 0.300089 16.038 0.299986C15.7738 0.297476 15.5117 0.347354 15.2668 0.446739C15.022 0.546124 14.7993 0.693045 14.6115 0.879013C14.4238 1.06498 14.2748 1.28631 14.1731 1.53021C14.0714 1.7741 14.019 2.03574 14.019 2.29999V6.99999C14.019 7.79564 14.3351 8.5587 14.8977 9.12131C15.4603 9.68392 16.2234 9.99999 17.019 9.99999H21.738C22.0467 9.99702 22.3505 9.92292 22.6259 9.78346C22.9013 9.644 23.1408 9.44293 23.3259 9.19587C23.5109 8.94881 23.6365 8.66241 23.6929 8.35892C23.7493 8.05544 23.735 7.74303 23.651 7.44599ZM21.153 7.99999H17.015C16.7498 7.99999 16.4955 7.89463 16.3079 7.70709C16.1204 7.51956 16.015 7.2652 16.015 6.99999L16.007 2.30699C16.0144 2.30169 16.023 2.29857 16.032 2.29799H16.058C17.4201 2.66907 18.6611 3.3909 19.6571 4.39143C20.653 5.39196 21.3692 6.6362 21.734 7.99999H21.153Z" fill="#63745E"/>
</g>
<defs>
<clipPath id="clip0_59_33">
<rect width="24" height="24" fill="white"/>
</clipPath>
</defs>
</svg>
